HIERARCHY
ROOT joint_Root
{
	OFFSET 0.0 0.0 0.0
	CHANNELS 6 Xposition Yposition Zposition Zrotation Xrotation Yrotation 
	JOINT Hips
	{
		OFFSET -17.1583 93.1646 452.98
		CHANNELS 6 Xposition Yposition Zposition Zrotation Xrotation Yrotation 
		JOINT Spine
		{
			OFFSET 15.7357 0.0 0.0
			CHANNELS 6 Xposition Yposition Zposition Zrotation Xrotation Yrotation 
			JOINT Chest
			{
				OFFSET 8.98455 -0.406207 0.0
				CHANNELS 6 Xposition Yposition Zposition Zrotation Xrotation Yrotation 
				JOINT Neck
				{
					OFFSET 16.3773 0.0 0.0
					CHANNELS 6 Xposition Yposition Zposition Zrotation Xrotation Yrotation 
					JOINT Head
					{
						OFFSET 6.45672 0.0 0.0
						CHANNELS 6 Xposition Yposition Zposition Zrotation Xrotation Yrotation 
						End Site
						{
							OFFSET 0.0 0.0 0.0
						}
					}
				}
				JOINT Shoulder_L
				{
					OFFSET 12.9942 -0.242716 4.98039
					CHANNELS 6 Xposition Yposition Zposition Zrotation Xrotation Yrotation 
					JOINT UpperArm_L
					{
						OFFSET 5.34809 0.0 0.0
						CHANNELS 6 Xposition Yposition Zposition Zrotation Xrotation Yrotation 
						JOINT LowerArm_L
						{
							OFFSET 24.3286 1.87007e-05 0.0
							CHANNELS 6 Xposition Yposition Zposition Zrotation Xrotation Yrotation 
							JOINT Hand_L
							{
								OFFSET 22.2916 0.0 0.0
								CHANNELS 6 Xposition Yposition Zposition Zrotation Xrotation Yrotation 
								End Site
								{
									OFFSET 0.0 0.0 0.0
								}
							}
						}
					}
				}
				JOINT Shoulder_R
				{
					OFFSET 12.9945 -0.242716 -4.98039
					CHANNELS 6 Xposition Yposition Zposition Zrotation Xrotation Yrotation 
					JOINT UpperArm_R
					{
						OFFSET -5.34813 0.0 0.0
						CHANNELS 6 Xposition Yposition Zposition Zrotation Xrotation Yrotation 
						JOINT LowerArm_R
						{
							OFFSET -24.3289 0.000322201 0.0
							CHANNELS 6 Xposition Yposition Zposition Zrotation Xrotation Yrotation 
							JOINT Hand_R
							{
								OFFSET -22.2915 -0.000108084 0.0
								CHANNELS 6 Xposition Yposition Zposition Zrotation Xrotation Yrotation 
								End Site
								{
									OFFSET 0.0 0.0 0.0
								}
							}
						}
					}
				}
			}
		}
		JOINT UpperLeg_L
		{
			OFFSET -2.19248 -6.46944 0.0
			CHANNELS 6 Xposition Yposition Zposition Zrotation Xrotation Yrotation 
			JOINT LowerLeg_L
			{
				OFFSET 39.0811 0.0 -1.23785e-05
				CHANNELS 6 Xposition Yposition Zposition Zrotation Xrotation Yrotation 
				JOINT Foot_L
				{
					OFFSET 40.9854 0.0 -1.26872e-05
					CHANNELS 6 Xposition Yposition Zposition Zrotation Xrotation Yrotation 
					JOINT Toes_L
					{
						OFFSET 11.7543 0.0 0.0
						CHANNELS 6 Xposition Yposition Zposition Zrotation Xrotation Yrotation 
						End Site
						{
							OFFSET 0.0 0.0 0.0
						}
					}
				}
			}
		}
		JOINT UpperLeg_R
		{
			OFFSET -2.19251 6.46944 0.0
			CHANNELS 6 Xposition Yposition Zposition Zrotation Xrotation Yrotation 
			JOINT LowerLeg_R
			{
				OFFSET -39.0811 -0.00228153 -0.0401928
				CHANNELS 6 Xposition Yposition Zposition Zrotation Xrotation Yrotation 
				JOINT Foot_R
				{
					OFFSET -40.9854 0.0 0.0
					CHANNELS 6 Xposition Yposition Zposition Zrotation Xrotation Yrotation 
					JOINT Toes_R
					{
						OFFSET -11.7543 0.0 0.0
						CHANNELS 6 Xposition Yposition Zposition Zrotation Xrotation Yrotation 
						End Site
						{
							OFFSET 0.0 0.0 0.0
						}
					}
				}
			}
		}
	}
}
MOTION
Frames:	9
Frame Time:	0.0333333
0.000000 0.000000 0.000000 0.000000 0.000000 -0.000000 0.107113 93.193300 -0.856735 87.222900 -2.524090 -0.947210 15.735700 0.000005 -0.000001 84.222400 88.588300 -82.822100 8.984550 -0.406207 -0.000000 -4.950220 -0.439217 2.783760 16.377300 -0.000001 -0.000001 4.803250 3.177090 -3.223210 6.456720 -0.000001 -0.000000 6.874050 2.962900 -1.094380 12.994200 -0.242716 4.980390 -92.623400 7.917510 -71.601700 5.348090 -0.000007 -0.000001 -72.768100 31.555100 0.919260 24.328600 0.000019 0.000005 12.441600 27.569300 -25.487000 22.291600 -0.000001 0.000005 -3.140720 4.951020 8.344140 12.994500 -0.242716 -4.980390 88.431700 5.074050 -72.799500 -5.348130 -0.000001 -0.000004 -72.450200 29.159600 -0.143163 -24.328900 0.000322 -0.000009 3.137980 7.327040 -23.268700 -22.291500 -0.000108 -0.000004 -0.882244 5.225090 2.082280 -2.192480 -6.469440 -0.000000 -177.738000 -1.678370 -3.397200 39.081100 -0.000007 -0.000012 0.163224 -0.524041 17.300700 40.985400 -0.000006 -0.000013 2.805890 6.574710 -70.556900 11.754300 -0.000000 0.000003 0.000273 0.162891 -9.970260 -2.192510 6.469440 -0.000001 -176.095000 4.306390 -179.714000 -39.081100 -0.002282 -0.040193 0.004162 -0.004229 11.037900 -40.985400 0.000008 0.000006 -3.854760 3.631170 -67.109100 -11.754300 -0.000006 -0.000006 -0.010336 0.273800 -5.448910
0.000000 0.000000 0.000000 0.000000 0.000000 -0.000000 0.060028 93.197000 -0.904158 87.217900 -2.560610 -0.977410 15.735700 0.000005 -0.000001 84.146000 88.579500 -82.741700 8.984550 -0.406207 -0.000000 -4.932930 -0.444996 2.791730 16.377300 -0.000001 -0.000001 4.799070 3.182210 -3.226100 6.456720 -0.000001 -0.000000 6.733220 2.983200 -1.067510 12.994200 -0.242716 4.980390 -92.628900 7.914470 -71.559000 5.348090 -0.000007 -0.000001 -72.854700 31.610900 0.941235 24.328600 0.000019 0.000005 12.462700 27.584100 -25.514900 22.291600 -0.000001 0.000005 -3.083770 4.954580 8.270770 12.994500 -0.242716 -4.980390 88.432400 5.054740 -72.744700 -5.348130 -0.000001 -0.000004 -72.115600 28.106800 -0.142334 -24.328900 0.000322 -0.000009 3.316800 7.446740 -24.098500 -22.291500 -0.000108 -0.000004 -1.015160 5.224510 2.097140 -2.192480 -6.469440 -0.000000 -177.702000 -1.623290 -3.465490 39.081100 -0.000007 -0.000012 0.163145 -0.523370 17.313600 40.985400 -0.000006 -0.000013 2.750960 6.499050 -70.501300 11.754300 -0.000000 0.000003 0.000415 0.160312 -10.075000 -2.192510 6.469440 -0.000001 -176.054000 4.256450 -179.769000 -39.081100 -0.002282 -0.040193 0.004142 -0.004127 11.030200 -40.985400 0.000008 0.000006 -3.904710 3.618950 -67.036600 -11.754300 -0.000006 -0.000006 -0.010118 0.272184 -5.515050
0.000000 0.000000 0.000000 0.000000 0.000000 -0.000000 0.000238 93.206000 -0.947854 87.212400 -2.545340 -0.946287 15.735700 0.000005 -0.000001 83.342600 88.548900 -81.929200 8.984550 -0.406207 -0.000000 -4.875940 -0.491955 2.808080 16.377300 -0.000001 -0.000001 4.774300 3.194830 -3.226600 6.456720 -0.000001 -0.000000 6.601920 3.015270 -1.016720 12.994200 -0.242716 4.980390 -92.625500 7.904080 -71.558400 5.348090 -0.000007 -0.000001 -72.947800 31.585500 0.957310 24.328600 0.000019 0.000005 12.457600 27.582500 -25.506600 22.291600 -0.000001 0.000005 -3.158380 4.958330 8.193030 12.994500 -0.242716 -4.980390 88.412000 5.104510 -72.693300 -5.348130 -0.000001 -0.000004 -71.629900 26.852500 -0.022876 -24.328900 0.000322 -0.000009 3.584200 7.542980 -25.514600 -22.291500 -0.000108 -0.000004 -1.018730 5.217690 2.271990 -2.192480 -6.469440 -0.000000 -177.657000 -1.605300 -3.446260 39.081100 -0.000007 -0.000012 0.163077 -0.523852 17.291900 40.985400 -0.000006 -0.000013 2.712920 6.526060 -70.515500 11.754300 -0.000000 0.000003 0.000344 0.161613 -10.022200 -2.192510 6.469440 -0.000001 -176.003000 4.264930 -179.748000 -39.081100 -0.002282 -0.040193 0.003982 -0.003326 10.970200 -40.985400 0.000008 0.000006 -3.872230 3.576010 -66.989300 -11.754300 -0.000006 -0.000006 -0.010365 0.274011 -5.440310
0.000000 0.000000 0.000000 0.000000 0.000000 -0.000000 -0.035385 93.206300 -1.012700 87.234000 -2.597470 -0.982187 15.735700 0.000005 -0.000001 83.383200 88.544300 -81.966800 8.984550 -0.406207 -0.000000 -4.866520 -0.491186 2.814060 16.377300 -0.000001 -0.000001 4.724890 3.199450 -3.228990 6.456720 -0.000001 -0.000000 6.470460 3.063760 -0.952867 12.994200 -0.242716 4.980390 -92.620200 7.885150 -71.552200 5.348090 -0.000007 -0.000001 -73.019100 31.664200 0.960944 24.328600 0.000019 0.000005 12.422300 27.541200 -25.472200 22.291600 -0.000001 0.000005 -3.211850 4.958990 8.179580 12.994500 -0.242716 -4.980390 88.417700 5.059500 -72.608000 -5.348130 -0.000001 -0.000004 -71.217600 25.297400 0.131461 -24.328900 0.000322 -0.000009 3.780750 7.361290 -27.289800 -22.291500 -0.000108 -0.000004 -0.883157 5.217990 2.264120 -2.192480 -6.469440 -0.000000 -177.658000 -1.611530 -3.547130 39.081100 -0.000007 -0.000012 0.162631 -0.521243 17.328500 40.985400 -0.000006 -0.000013 2.668670 6.454780 -70.460300 11.754300 -0.000000 0.000003 0.000232 0.163619 -9.940700 -2.192510 6.469440 -0.000001 -175.971000 4.238010 -179.849000 -39.081100 -0.002282 -0.040193 0.004980 -0.008429 11.031400 -40.985400 0.000008 0.000006 -3.638280 3.562700 -67.040000 -11.754300 -0.000006 -0.000006 -0.010469 0.274774 -5.409100
0.000000 0.000000 0.000000 0.000000 0.000000 -0.000000 -0.090085 93.225200 -1.083080 87.219000 -2.575380 -0.974120 15.735700 0.000005 -0.000001 82.202100 88.512400 -80.764700 8.984550 -0.406207 -0.000000 -4.809750 -0.560942 2.853310 16.377300 -0.000001 -0.000001 4.701850 3.209790 -3.194910 6.456720 -0.000001 -0.000000 6.272110 3.118000 -0.883532 12.994200 -0.242716 4.980390 -92.624100 7.907240 -71.574700 5.348090 -0.000007 -0.000001 -73.066900 31.648900 1.014930 24.328600 0.000019 0.000005 12.514900 27.669000 -25.547900 22.291600 -0.000001 0.000005 -3.136760 4.957030 8.220060 12.994500 -0.242716 -4.980390 88.412200 5.051120 -72.524000 -5.348130 -0.000001 -0.000004 -70.710400 23.591100 0.286097 -24.328900 0.000322 -0.000009 3.988920 7.085380 -29.487400 -22.291500 -0.000108 -0.000004 -0.775338 5.205160 2.590240 -2.192480 -6.469440 -0.000000 -177.605000 -1.575050 -3.538780 39.081100 -0.000007 -0.000012 0.161415 -0.520069 17.243200 40.985400 -0.000006 -0.000013 2.624610 6.473360 -70.407300 11.754300 -0.000000 0.000003 0.000360 0.161321 -10.034000 -2.192510 6.469440 -0.000001 -175.931000 4.160370 -179.823000 -39.081100 -0.002282 -0.040193 0.003888 -0.002865 10.883300 -40.985400 0.000008 0.000006 -3.848200 3.500460 -66.854800 -11.754300 -0.000006 -0.000006 -0.010255 0.273200 -5.473490
0.000000 0.000000 0.000000 0.000000 0.000000 -0.000000 -0.133084 93.226900 -1.169950 87.219900 -2.596370 -1.017020 15.735700 0.000005 -0.000001 81.372700 88.502900 -79.923800 8.984550 -0.406207 -0.000000 -4.796450 -0.607472 2.874620 16.377300 -0.000001 -0.000001 4.661180 3.219720 -3.107500 6.456720 -0.000001 -0.000000 6.083130 3.236530 -0.761905 12.994200 -0.242716 4.980390 -92.624500 7.902340 -71.561400 5.348090 -0.000007 -0.000001 -73.085900 31.715000 1.039960 24.328600 0.000019 0.000005 12.454500 27.503700 -25.559700 22.291600 -0.000001 0.000005 -3.097580 4.954480 8.272910 12.994500 -0.242716 -4.980390 88.407100 5.039800 -72.434800 -5.348130 -0.000001 -0.000004 -70.271400 21.289800 0.543436 -24.328900 0.000322 -0.000009 4.430100 7.050790 -32.262900 -22.291500 -0.000108 -0.000004 -0.884694 5.194170 2.865190 -2.192480 -6.469440 -0.000000 -177.577000 -1.560930 -3.670150 39.081100 -0.000007 -0.000012 0.161255 -0.517749 17.299700 40.985400 -0.000006 -0.000013 2.583500 6.439410 -70.336000 11.754300 -0.000000 0.000003 0.000514 0.158476 -10.149500 -2.192510 6.469440 -0.000001 -175.871000 4.158060 -179.955000 -39.081100 -0.002282 -0.040193 0.004851 -0.007829 10.940500 -40.985400 0.000008 0.000006 -3.627510 3.483330 -66.870800 -11.754300 -0.000006 -0.000006 -0.010125 0.272238 -5.512830
0.000000 0.000000 0.000000 0.000000 0.000000 -0.000000 -0.188235 93.241400 -1.242370 87.214300 -2.634680 -0.985785 15.735700 0.000005 -0.000001 81.222400 88.470900 -79.758300 8.984550 -0.406207 -0.000000 -4.734140 -0.625854 2.904350 16.377300 -0.000001 -0.000001 4.644340 3.222070 -3.011240 6.456720 -0.000001 -0.000000 5.871420 3.333500 -0.584063 12.994200 -0.242716 4.980390 -92.616800 7.885640 -71.576000 5.348090 -0.000007 -0.000001 -73.086100 31.720500 0.988868 24.328600 0.000019 0.000005 12.471400 27.635200 -25.492800 22.291600 -0.000001 0.000005 -3.177500 4.957760 8.205010 12.994500 -0.242716 -4.980390 88.395700 5.047470 -72.341600 -5.348130 -0.000001 -0.000004 -69.914300 18.416400 0.958429 -24.328900 0.000322 -0.000009 5.248850 7.318060 -35.801600 -22.291500 -0.000108 -0.000004 -0.973193 5.164610 3.591460 -2.192480 -6.469440 -0.000000 -177.538000 -1.524880 -3.661900 39.081100 -0.000007 -0.000012 0.160693 -0.517178 17.260900 40.985400 -0.000006 -0.000013 2.523490 6.375550 -70.334400 11.754300 -0.000000 0.000003 0.000299 0.162435 -9.988780 -2.192510 6.469440 -0.000001 -175.841000 4.059800 -179.931000 -39.081100 -0.002282 -0.040193 0.004053 -0.003730 10.854600 -40.985400 0.000008 0.000006 -3.796400 3.448750 -66.722800 -11.754300 -0.000006 -0.000006 -0.010153 0.272444 -5.504390
0.000000 0.000000 0.000000 0.000000 0.000000 -0.000000 -0.240364 93.245700 -1.357160 87.185500 -2.636450 -0.978183 15.735700 0.000005 -0.000001 80.580000 88.441500 -79.084500 8.984550 -0.406207 -0.000000 -4.680690 -0.672025 2.965520 16.377300 -0.000001 -0.000001 4.583400 3.280810 -2.845540 6.456720 -0.000001 -0.000000 5.657290 3.510980 -0.380426 12.994200 -0.242716 4.980390 -92.609500 7.874350 -71.599200 5.348090 -0.000007 -0.000001 -73.084400 31.735200 0.990819 24.328600 0.000019 0.000005 12.507300 27.642800 -25.553300 22.291600 -0.000001 0.000005 -3.153750 4.957170 8.217230 12.994500 -0.242716 -4.980390 88.388800 5.032800 -72.221900 -5.348130 -0.000001 -0.000004 -69.711800 14.765600 1.499930 -24.328900 0.000322 -0.000009 6.792350 8.087320 -40.250800 -22.291500 -0.000108 -0.000004 -1.497330 5.125610 4.521900 -2.192480 -6.469440 -0.000000 -177.471000 -1.445590 -3.771380 39.081100 -0.000007 -0.000012 0.160725 -0.514644 17.344000 40.985400 -0.000006 -0.000013 2.464240 6.300120 -70.255300 11.754300 -0.000000 0.000003 0.000513 0.158482 -10.149300 -2.192510 6.469440 -0.000001 -175.754000 4.070750 179.980000 -39.081100 -0.002282 -0.040193 0.004564 -0.006377 10.891700 -40.985400 0.000008 0.000006 -3.606540 3.445410 -66.736500 -11.754300 -0.000006 -0.000006 -0.010555 0.275404 -5.383300
0.000000 0.000000 0.000000 0.000000 0.000000 -0.000000 -0.301197 93.252800 -1.460030 87.158400 -2.661750 -0.991906 15.735700 0.000005 -0.000001 78.977200 88.416600 -77.444000 8.984550 -0.406207 -0.000000 -4.645680 -0.770907 3.037170 16.377300 -0.000001 -0.000001 4.529940 3.407050 -2.643140 6.456720 -0.000001 -0.000000 5.393770 3.871930 -0.072416 12.994200 -0.242716 4.980390 -92.611100 7.867330 -71.573700 5.348090 -0.000007 -0.000001 -73.064700 31.834400 1.067910 24.328600 0.000019 0.000005 12.591800 27.647600 -25.705300 22.291600 -0.000001 0.000005 -3.204720 4.957750 8.204420 12.994500 -0.242716 -4.980390 88.396100 4.977580 -72.114400 -5.348130 -0.000001 -0.000004 -69.674600 10.847100 2.118200 -24.328900 0.000322 -0.000009 8.337620 8.278590 -45.506800 -22.291500 -0.000108 -0.000004 -1.504610 5.073550 5.713240 -2.192480 -6.469440 -0.000000 -177.405000 -1.373670 -3.887980 39.081100 -0.000007 -0.000012 0.161245 -0.514301 17.407600 40.985400 -0.000006 -0.000013 2.403910 6.238290 -70.210400 11.754300 -0.000000 0.000003 0.000462 0.159451 -10.109900 -2.192510 6.469440 -0.000001 -175.680000 4.032240 179.911000 -39.081100 -0.002282 -0.040193 0.004571 -0.006427 10.867000 -40.985400 0.000008 0.000006 -3.613960 3.434630 -66.619900 -11.754300 -0.000006 -0.000006 -0.010158 0.272479 -5.502960
